C:\Users\Nicos\Documents\OpenSimProjects\SprintingProject\Study1\PredictiveResults\IC_pred_Sprinting_optimum_27-October-2023__18-13-56_p02_maxVel_01___HTD_Plus_2_GRF.mot
version=1
nRows=6
nColumns=127
inDegrees=yes
endheader
time	ground_force_vx	ground_force_vy	ground_force_vz	ground_force_px	ground_force_py	ground_force_pz	ground_torque_x	ground_torque_y	ground_torque_z	1_ground_force_vx	1_ground_force_vy	1_ground_force_vz	1_ground_force_px	1_ground_force_py	1_ground_force_pz	1_ground_torque_x	1_ground_torque_y	1_ground_torque_z	2_ground_force_vx	2_ground_force_vy	2_ground_force_vz	2_ground_force_px	2_ground_force_py	2_ground_force_pz	2_ground_torque_x	2_ground_torque_y	2_ground_torque_z	3_ground_force_vx	3_ground_force_vy	3_ground_force_vz	3_ground_force_px	3_ground_force_py	3_ground_force_pz	3_ground_torque_x	3_ground_torque_y	3_ground_torque_z	4_ground_force_vx	4_ground_force_vy	4_ground_force_vz	4_ground_force_px	4_ground_force_py	4_ground_force_pz	4_ground_torque_x	4_ground_torque_y	4_ground_torque_z	5_ground_force_vx	5_ground_force_vy	5_ground_force_vz	5_ground_force_px	5_ground_force_py	5_ground_force_pz	5_ground_torque_x	5_ground_torque_y	5_ground_torque_z	6_ground_force_vx	6_ground_force_vy	6_ground_force_vz	6_ground_force_px	6_ground_force_py	6_ground_force_pz	6_ground_torque_x	6_ground_torque_y	6_ground_torque_z	7_ground_force_vx	7_ground_force_vy	7_ground_force_vz	7_ground_force_px	7_ground_force_py	7_ground_force_pz	7_ground_torque_x	7_ground_torque_y	7_ground_torque_z	8_ground_force_vx	8_ground_force_vy	8_ground_force_vz	8_ground_force_px	8_ground_force_py	8_ground_force_pz	8_ground_torque_x	8_ground_torque_y	8_ground_torque_z	9_ground_force_vx	9_ground_force_vy	9_ground_force_vz	9_ground_force_px	9_ground_force_py	9_ground_force_pz	9_ground_torque_x	9_ground_torque_y	9_ground_torque_z	10_ground_force_vx	10_ground_force_vy	10_ground_force_vz	10_ground_force_px	10_ground_force_py	10_ground_force_pz	10_ground_torque_x	10_ground_torque_y	10_ground_torque_z	11_ground_force_vx	11_ground_force_vy	11_ground_force_vz	11_ground_force_px	11_ground_force_py	11_ground_force_pz	11_ground_torque_x	11_ground_torque_y	11_ground_torque_z	12_ground_force_vx	12_ground_force_vy	12_ground_force_vz	12_ground_force_px	12_ground_force_py	12_ground_force_pz	12_ground_torque_x	12_ground_torque_y	12_ground_torque_z	13_ground_force_vx	13_ground_force_vy	13_ground_force_vz	13_ground_force_px	13_ground_force_py	13_ground_force_pz	13_ground_torque_x	13_ground_torque_y	13_ground_torque_z
0.106770	225.605542	689.825066	-109.320861	0.467541	-0.016593	0.416131	0.000000	0.000000	0.000000	146.157840	423.698952	1.641744	0.422241	-0.012796	0.435040	0.000000	0.000000	0.000000	117.672349	373.379419	5.609189	0.389596	-0.012456	0.422624	0.000000	0.000000	0.000000	151.946426	478.811013	-12.614813	0.394285	-0.014618	0.400811	0.000000	0.000000	0.000000	-5.508436	23.420504	6.217356	0.303611	-0.001909	0.446842	0.000000	0.000000	0.000000	-9.839482	255.119309	79.537009	0.360833	-0.010106	0.415509	0.000000	0.000000	0.000000	-2.491667	8.644486	2.373479	0.245783	-0.000705	0.387049	0.000000	0.000000	0.000000	-0.000000	0.000000	-0.000000	0.355348	0.216748	0.087384	0.000000	0.000000	0.000000	-0.000000	0.000000	-0.000000	0.360816	0.240691	0.075372	0.000000	0.000000	0.000000	-0.000000	0.000000	0.000000	0.356470	0.254686	0.087392	0.000000	0.000000	0.000000	-0.000000	0.000000	0.000000	0.346452	0.250831	0.106278	0.000000	0.000000	0.000000	-0.000000	0.000000	0.000000	0.364686	0.299942	0.074552	0.000000	0.000000	0.000000	-0.000000	0.000000	0.000000	0.352112	0.268795	0.096601	0.000000	0.000000	0.000000	-0.000000	0.000000	0.000000	0.334681	0.325229	0.133434	0.000000	0.000000	0.000000
0.108816	271.792320	725.409130	-92.457930	0.467188	-0.017169	0.416349	0.000000	0.000000	0.000000	147.467554	397.334545	21.800990	0.422190	-0.012350	0.435044	0.000000	0.000000	0.000000	97.576099	310.670927	10.099923	0.389834	-0.011202	0.422613	0.000000	0.000000	0.000000	130.504833	412.637913	-8.990492	0.394416	-0.013464	0.400818	0.000000	0.000000	0.000000	-0.865679	3.429787	0.940546	0.304731	0.001158	0.446513	0.000000	0.000000	0.000000	-21.954937	183.185835	54.439936	0.361322	-0.008247	0.415392	0.000000	0.000000	0.000000	-0.170399	0.520677	0.148811	0.247275	0.003576	0.386508	0.000000	0.000000	0.000000	-0.000000	0.000000	-0.000000	0.394624	0.213352	0.086190	0.000000	0.000000	0.000000	-0.000000	0.000000	-0.000000	0.398620	0.237337	0.073939	0.000000	0.000000	0.000000	-0.000000	0.000000	0.000000	0.392806	0.251402	0.085945	0.000000	0.000000	0.000000	-0.000000	0.000000	0.000000	0.382823	0.247432	0.104754	0.000000	0.000000	0.000000	-0.000000	0.000000	0.000000	0.398556	0.296738	0.072898	0.000000	0.000000	0.000000	-0.000000	0.000000	0.000000	0.387549	0.265456	0.095019	0.000000	0.000000	0.000000	-0.000000	0.000000	0.000000	0.366525	0.321671	0.131315	0.000000	0.000000	0.000000
0.110299	305.995495	748.146532	-79.927988	0.466773	-0.017571	0.416520	0.000000	0.000000	0.000000	146.493431	374.038782	30.391645	0.422067	-0.011950	0.435020	0.000000	0.000000	0.000000	82.041953	262.684230	12.365852	0.390060	-0.010147	0.422604	0.000000	0.000000	0.000000	114.025952	360.876257	-5.002085	0.394562	-0.012482	0.400823	0.000000	0.000000	0.000000	-0.168251	0.618325	0.169150	0.305731	0.003594	0.446232	0.000000	0.000000	0.000000	-21.266465	132.971842	37.659851	0.361779	-0.006728	0.415291	0.000000	0.000000	0.000000	-0.007646	0.021302	0.006146	0.248658	0.006947	0.386042	0.000000	0.000000	0.000000	-0.000000	0.000000	-0.000000	0.423232	0.210835	0.085473	0.000000	0.000000	0.000000	-0.000000	0.000000	-0.000000	0.426138	0.234833	0.073023	0.000000	0.000000	0.000000	-0.000000	0.000000	0.000000	0.419227	0.248933	0.085000	0.000000	0.000000	0.000000	-0.000000	0.000000	0.000000	0.409284	0.244881	0.103760	0.000000	0.000000	0.000000	-0.000000	0.000000	0.000000	0.423156	0.294305	0.071772	0.000000	0.000000	0.000000	-0.000000	0.000000	0.000000	0.413317	0.262938	0.093969	0.000000	0.000000	0.000000	-0.000000	0.000000	0.000000	0.389676	0.318961	0.129845	0.000000	0.000000	0.000000
0.110946	320.846944	756.734808	-74.174312	0.466546	-0.017736	0.416596	0.000000	0.000000	0.000000	145.380428	362.633912	33.214471	0.421991	-0.011749	0.435002	0.000000	0.000000	0.000000	75.053167	241.365063	13.358408	0.390174	-0.009644	0.422600	0.000000	0.000000	0.000000	106.631080	337.548576	-2.623598	0.394641	-0.012012	0.400826	0.000000	0.000000	0.000000	-0.064174	0.227536	0.061849	0.306223	0.004715	0.446099	0.000000	0.000000	0.000000	-19.598559	112.090617	31.035825	0.362009	-0.006018	0.415244	0.000000	0.000000	0.000000	-0.001620	0.004337	0.001251	0.249348	0.008489	0.385822	0.000000	0.000000	0.000000	-0.000000	0.000000	-0.000000	0.435763	0.209722	0.085199	0.000000	0.000000	0.000000	-0.000000	0.000000	-0.000000	0.438187	0.233722	0.072656	0.000000	0.000000	0.000000	-0.000000	0.000000	0.000000	0.430793	0.247831	0.084616	0.000000	0.000000	0.000000	-0.000000	0.000000	0.000000	0.420870	0.243743	0.103355	0.000000	0.000000	0.000000	-0.000000	0.000000	0.000000	0.433917	0.293213	0.071301	0.000000	0.000000	0.000000	-0.000000	0.000000	0.000000	0.424596	0.261814	0.093538	0.000000	0.000000	0.000000	-0.000000	0.000000	0.000000	0.399809	0.317743	0.129222	0.000000	0.000000	0.000000
0.112993	368.385582	778.721710	-53.740265	0.465618	-0.018201	0.416815	0.000000	0.000000	0.000000	139.173226	322.313382	40.598671	0.421650	-0.011001	0.434891	0.000000	0.000000	0.000000	52.376427	174.004364	15.100960	0.390618	-0.007884	0.422581	0.000000	0.000000	0.000000	82.017789	262.222156	2.100753	0.394966	-0.010354	0.400828	0.000000	0.000000	0.000000	-0.001715	0.005333	0.001376	0.308029	0.008484	0.445651	0.000000	0.000000	0.000000	-12.208988	52.926903	12.926412	0.362876	-0.003580	0.415080	0.000000	0.000000	0.000000	-0.000007	0.000016	0.000005	0.251906	0.013636	0.385077	0.000000	0.000000	0.000000	-0.000000	0.000000	-0.000000	0.475516	0.206156	0.084497	0.000000	0.000000	0.000000	-0.000000	0.000000	-0.000000	0.476401	0.230141	0.071640	0.000000	0.000000	0.000000	-0.000000	0.000000	0.000000	0.467458	0.244260	0.083524	0.000000	0.000000	0.000000	-0.000000	0.000000	0.000000	0.457615	0.240057	0.102204	0.000000	0.000000	0.000000	-0.000000	0.000000	0.000000	0.467998	0.289644	0.069903	0.000000	0.000000	0.000000	-0.000000	0.000000	0.000000	0.460351	0.258158	0.092287	0.000000	0.000000	0.000000	-0.000000	0.000000	0.000000	0.431924	0.313754	0.127336	0.000000	0.000000	0.000000
0.114476	399.565886	787.438915	-39.627569	0.464745	-0.018465	0.416951	0.000000	0.000000	0.000000	130.996914	288.907404	42.599254	0.421322	-0.010337	0.434766	0.000000	0.000000	0.000000	36.006578	127.066034	16.129161	0.391034	-0.006443	0.422568	0.000000	0.000000	0.000000	64.132048	207.893743	5.931982	0.395289	-0.008987	0.400831	0.000000	0.000000	0.000000	-0.000081	0.000231	0.000057	0.309607	0.011427	0.445310	0.000000	0.000000	0.000000	-5.320481	20.148029	4.426389	0.363658	-0.001631	0.414955	0.000000	0.000000	0.000000	-0.000000	0.000000	0.000000	0.254157	0.017619	0.384507	0.000000	0.000000	0.000000	-0.000000	0.000000	-0.000000	0.504482	0.203529	0.084147	0.000000	0.000000	0.000000	-0.000000	0.000000	-0.000000	0.504234	0.227484	0.071042	0.000000	0.000000	0.000000	-0.000000	0.000000	-0.000000	0.494158	0.241587	0.082850	0.000000	0.000000	0.000000	-0.000000	0.000000	-0.000000	0.484386	0.237302	0.101493	0.000000	0.000000	0.000000	-0.000000	0.000000	0.000000	0.492787	0.286948	0.068976	0.000000	0.000000	0.000000	-0.000000	0.000000	-0.000000	0.486388	0.255416	0.091491	0.000000	0.000000	0.000000	-0.000000	0.000000	0.000000	0.455308	0.310732	0.126051	0.000000	0.000000	0.000000
